:SAMPLES-PER-SECOND 30
:FULLY-SPECIFIED
:DEGREES
1063
root  9.38383 19.9449 1.42298 -158.291 -82.1397 149.18
RightUpLeg  -65.2507 -15.9842 -19.4742
RightLeg  119.631 -0.0577367 0.803945
RightFoot  -36.2148 0.970885 5.5219
RightToes  9.54606e-009 0 -3.6325e-017
Spine  52.314 -0.120299 -7.77226
Spine1  7.87987 -2.18482 -8.50082
HEad  -45.7351 -3.19624 1.08559
LeftShoulder1  0.960497 -5.55083 -2.46414
LeftArm  -30.1057 -61.3329 -78.568
LeftForeArm  142.538 -73.8784 -142.157
LeftHand  -0.0276769 5.29562 4.15573
RightShoulder  0.488947 -0.171951 7.11207
RightArm  -44.0302 34.7748 33.6192
RightForeArm  -175.61 53.2218 167.635
RightHand  -0.722212 9.1448 -6.14274
LeftUpLeg  -60.5882 24.0112 18.1886
LeftLeg  116.35 3.59397 -7.2205
LeftFoot  -34.1596 -0.556625 -3.78007
LeftToes  -8.26734e-010 9.74065e-011 1.64617e-011
1064
root  9.31817 21.0285 1.22059 -153.949 -82.1044 144.724
RightUpLeg  -62.1345 -16.5143 -18.7397
RightLeg  116.298 0.520314 -0.199279
RightFoot  -36.1647 0.878442 5.1132
RightToes  9.54606e-009 0 -3.6325e-017
Spine  51.2642 -0.359372 -7.06538
Spine1  8.34563 -2.10762 -7.86458
HEad  -45.9618 -2.78275 0.826523
LeftShoulder1  0.967489 -5.31877 -2.86645
LeftArm  -30.435 -60.9225 -78.0388
LeftForeArm  144.209 -73.2701 -143.832
LeftHand  -0.0282762 5.2868 4.04923
RightShoulder  0.501 -0.265197 8.01905
RightArm  -43.2606 33.9893 32.887
RightForeArm  -177.663 53.6502 167.292
RightHand  -0.862644 8.63026 -7.49774
LeftUpLeg  -57.54 23.7001 17.1406
LeftLeg  112.433 2.86109 -6.94814
LeftFoot  -33.4104 -0.553998 -3.87482
LeftToes  -8.26734e-010 9.74065e-011 1.64617e-011
1065
root  9.23509 22.2471 0.96445 -146.593 -81.6596 137.06
RightUpLeg  -58.5174 -16.7627 -18.8186
RightLeg  112.394 0.827662 -0.952716
RightFoot  -36.2279 0.809052 4.78724
RightToes  9.54606e-009 0 -3.6325e-017
Spine  50.3693 -0.507011 -7.0351
Spine1  8.23252 -2.2761 -7.53616
HEad  -45.5672 -1.98112 0.0614471
LeftShoulder1  0.969316 -5.10695 -3.20752
LeftArm  -31.1909 -60.1419 -76.597
LeftForeArm  146.21 -72.5482 -145.697
LeftHand  -0.0614003 4.27303 4.42168
RightShoulder  0.520123 -0.311635 8.94481
RightArm  -41.4934 33.207 33.2101
RightForeArm  -177.917 54.1399 167.046
RightHand  -0.899986 8.47386 -7.88449
LeftUpLeg  -53.7779 23.4226 15.6161
LeftLeg  107.716 2.08453 -6.61507
LeftFoot  -32.4702 -0.526416 -3.87114
LeftToes  -8.26734e-010 9.74065e-011 1.64617e-011
1066
root  9.12637 23.6123 0.699936 -143.393 -81.1703 133.348
RightUpLeg  -54.252 -16.6108 -18.6808
RightLeg  107.792 0.827362 -1.29676
RightFoot  -35.9309 0.689549 4.28842
RightToes  9.54606e-009 0 -3.6325e-017
Spine  49.2223 -0.405059 -6.75406
Spine1  8.5255 -2.23367 -6.30776
HEad  -45.0857 -1.17593 -1.16667
LeftShoulder1  1.01884 -4.7339 -4.44794
LeftArm  -31.9893 -59.3932 -74.4906
LeftForeArm  147.455 -72.5726 -145.84
LeftHand  -0.0769921 4.02331 4.92273
RightShoulder  0.535623 -0.19899 8.85133
RightArm  -39.0336 32.0595 34.2849
RightForeArm  -178.787 54.9359 166.606
RightHand  -0.846828 8.277 -7.54421
LeftUpLeg  -49.251 23.3721 14.6879
LeftLeg  102.301 1.27538 -6.1057
LeftFoot  -31.5086 -0.452743 -3.61126
LeftToes  -8.26734e-010 9.74065e-011 1.64617e-011
1067
root  9.00661 25.0764 0.381625 -140.63 -80.6003 130.325
RightUpLeg  -50.1514 -16.3205 -18.3254
RightLeg  102.592 0.867952 -2.02191
RightFoot  -35.2442 0.546908 3.72085
RightToes  9.54606e-009 0 -3.6325e-017
Spine  47.8025 -0.305453 -6.43405
Spine1  8.6527 -2.06099 -5.46795
HEad  -44.6092 -0.563293 -1.59583
LeftShoulder1  1.05079 -4.58484 -5.16526
LeftArm  -32.56 -57.9407 -72.679
LeftForeArm  149.441 -72.306 -146.681
LeftHand  -0.120631 3.12714 5.47065
RightShoulder  0.521461 -0.389132 9.44337
RightArm  -35.3054 30.8677 35.567
RightForeArm  -179.841 55.6468 166.17
RightHand  -0.985173 8.14529 -8.79359
LeftUpLeg  -44.7746 23.4596 13.8268
LeftLeg  96.2295 0.526532 -5.54021
LeftFoot  -29.919 -0.387455 -3.47426
LeftToes  -8.26734e-010 9.74065e-011 1.64617e-011
1068
root  8.85654 26.6093 0.0911405 -138.936 -80.6667 128.676
RightUpLeg  -45.9436 -16.3838 -17.5368
RightLeg  96.7828 0.724715 -2.63196
RightFoot  -34.1466 0.447522 3.37258
RightToes  9.54606e-009 0 -3.6325e-017
Spine  46.614 -0.752392 -5.33609
Spine1  7.89498 -2.19358 -4.4939
HEad  -43.838 0.0394897 -1.6545
LeftShoulder1  1.05098 -4.12601 -6.03044
LeftArm  -32.4688 -55.6145 -71.1423
LeftForeArm  150.613 -72.3182 -146.842
LeftHand  -0.0700996 4.00611 4.47535
RightShoulder  0.543907 -0.386548 10.2724
RightArm  -31.424 29.4827 36.1823
RightForeArm  178.222 57.2019 165.204
RightHand  -0.889485 7.99808 -8.0373
LeftUpLeg  -40.7759 23.1685 13.3608
LeftLeg  89.8298 -0.118763 -4.89443
LeftFoot  -27.7539 -0.364552 -3.68248
LeftToes  -8.26734e-010 9.74065e-011 1.64617e-011
1069
root  8.69761 28.1816 -0.25147 -135.841 -80.9682 125.734
RightUpLeg  -41.6743 -16.8186 -16.73
RightLeg  90.5501 0.444229 -3.23981
RightFoot  -32.6269 0.308202 2.82099
RightToes  9.54606e-009 0 -3.6325e-017
Spine  45.1673 -1.14988 -4.37601
Spine1  7.27052 -2.39526 -3.30693
HEad  -43.0137 0.78331 -1.71483
LeftShoulder1  1.07638 -3.93185 -6.84517
LeftArm  -32.6074 -53.2906 -68.6093
LeftForeArm  149.404 -72.9529 -145.381
LeftHand  -0.0980837 3.25292 4.5701
RightShoulder  0.50948 -0.744864 11.3855
RightArm  -26.3388 28.1914 37.5561
RightForeArm  176.225 59.3523 163.773
RightHand  -0.76538 7.8792 -7.02533
LeftUpLeg  -36.7988 22.7916 12.9302
LeftLeg  82.7726 -0.66844 -4.3365
LeftFoot  -25.254 -0.299002 -3.686
LeftToes  -8.26734e-010 9.74065e-011 1.64617e-011
1070
root  8.51009 29.748 -0.626152 -132.31 -81.0127 122.405
RightUpLeg  -37.478 -17.2929 -16.156
RightLeg  84.004 0.0300259 -3.65521
RightFoot  -30.852 0.15214 2.10482
RightToes  9.54606e-009 0 -3.6325e-017
Spine  42.864 -0.955579 -4.25547
Spine1  7.76261 -2.55378 -1.12516
HEad  -42.6784 1.48024 -2.27383
LeftShoulder1  1.06118 -3.17293 -8.40744
LeftArm  -30.8866 -51.2152 -66.8589
LeftForeArm  146.041 -74.039 -142.382
LeftHand  -0.130642 3.08068 5.85878
RightShoulder  0.457334 -1.02552 11.4229
RightArm  -20.7621 27.0277 39.3621
RightForeArm  171.541 62.4275 161.246
RightHand  -0.998274 9.87101 -7.96782
LeftUpLeg  -32.4772 22.295 12.415
LeftLeg  75.0462 -1.12027 -3.65832
LeftFoot  -22.7461 -0.24868 -3.87374
LeftToes  -8.26734e-010 9.74065e-011 1.64617e-011
1071
root  8.2954 31.2837 -0.979803 -128.732 -81.3811 119.039
RightUpLeg  -33.0424 -18.1493 -15.5461
RightLeg  77.0638 -0.437553 -3.69258
RightFoot  -28.8672 0.0107953 1.34008
RightToes  9.54606e-009 0 -3.6325e-017
Spine  40.9512 -1.31658 -3.43619
Spine1  7.48528 -2.77758 -0.041105
HEad  -42.0887 2.0051 -1.95468
LeftShoulder1  1.02492 -2.60201 -9.40466
LeftArm  -28.944 -48.3069 -65.0653
LeftForeArm  142.024 -75.3305 -138.219
LeftHand  -0.169792 2.63054 6.51074
RightShoulder  0.410917 -1.38436 12.4812
RightArm  -15.0476 25.3886 40.5257
RightForeArm  167.668 65.99 157.746
RightHand  -0.944383 9.31409 -7.80725
LeftUpLeg  -28.1447 21.2131 12.2054
LeftLeg  67.0735 -1.47993 -3.08159
LeftFoot  -19.9783 -0.240754 -4.77118
LeftToes  -8.26734e-010 9.74065e-011 1.64617e-011
1072
root  8.04183 32.734 -1.33565 -128.144 -81.5894 118.861
RightUpLeg  -28.9709 -18.807 -14.7163
RightLeg  69.9859 -0.814761 -3.32643
RightFoot  -26.7205 -0.107573 0.546765
RightToes  9.54606e-009 0 -3.6325e-017
Spine  38.7987 -1.32394 -2.64519
Spine1  7.03966 -2.76921 1.5737
HEad  -41.2016 2.19197 -2.2587
LeftShoulder1  1.01455 -2.14082 -10.7332
LeftArm  -26.1963 -44.5144 -63.1386
LeftForeArm  137.002 -76.7075 -132.546
LeftHand  -0.0609833 4.15096 4.19657
RightShoulder  0.387267 -1.59234 13.4681
RightArm  -9.3119 23.3935 41.3939
RightForeArm  161.042 70.2696 151.765
RightHand  -1.10148 10.2023 -8.57519
LeftUpLeg  -23.7904 20.4781 12.323
LeftLeg  58.9288 -1.69776 -2.50954
LeftFoot  -16.9523 -0.170124 -5.55264
LeftToes  -8.26734e-010 9.74065e-011 1.64617e-011
1073
root  7.78247 34.0915 -1.65637 -127.934 -81.8934 119.183
RightUpLeg  -25.0203 -19.6247 -13.8819
RightLeg  62.7021 -1.0126 -2.71673
RightFoot  -24.4388 -0.179815 -0.12729
RightToes  9.54606e-009 0 -3.6325e-017
Spine  36.6387 -1.54846 -1.58919
Spine1  6.27163 -2.83237 2.82732
HEad  -39.9147 2.26743 -2.64175
LeftShoulder1  0.96614 -1.47442 -12.3192
LeftArm  -22.312 -40.5642 -60.9796
LeftForeArm  126.083 -78.4896 -121.331
LeftHand  -0.0732359 3.79429 4.0448
RightShoulder  0.385713 -1.68688 14.5865
RightArm  -3.82889 20.9818 42.5203
RightForeArm  149.984 74.9032 140.891
RightHand  -1.04112 10.8281 -7.82775
LeftUpLeg  -19.6476 19.3308 12.3218
LeftLeg  50.5635 -1.36129 -1.30842
LeftFoot  -13.6108 -0.0431765 -6.19643
LeftToes  -8.26734e-010 9.74065e-011 1.64617e-011
1074
root  7.49223 35.3291 -1.98167 -129.769 -82.1068 121.401
RightUpLeg  -20.9067 -20.1742 -13.093
RightLeg  55.3416 -0.900983 -1.83638
RightFoot  -22.1785 -0.2204 -0.737711
RightToes  9.54606e-009 0 -3.6325e-017
Spine  34.2168 -1.65513 -0.337337
Spine1  6.05645 -2.63032 3.5643
HEad  -38.8017 2.28903 -3.14754
LeftShoulder1  0.926265 -0.870574 -14.2428
LeftArm  -17.0859 -37.1216 -59.1027
LeftForeArm  107.603 -79.9323 -102.209
LeftHand  -0.125913 2.27681 4.32195
RightShoulder  0.322744 -2.05875 15.9363
RightArm  0.985884 18.4132 43.5067
RightForeArm  126.316 79.0088 118.016
RightHand  -1.10653 11.5442 -7.96743
LeftUpLeg  -15.2642 18.202 12.5216
LeftLeg  42.1204 -0.438234 -0.0530581
LeftFoot  -9.76774 0.148916 -6.51436
LeftToes  -8.26734e-010 9.74065e-011 1.64617e-011
1075
root  7.17787 36.4524 -2.27586 -130.029 -82.1863 122.476
RightUpLeg  -17.2058 -20.7114 -12.5119
RightLeg  47.8242 -0.626515 -1.0853
RightFoot  -20.0777 -0.20422 -0.885518
RightToes  9.54606e-009 0 -3.6325e-017
Spine  31.1493 -1.63098 0.621551
Spine1  5.99488 -2.50543 4.48802
HEad  -37.1913 2.37857 -4.10905
LeftShoulder1  0.936248 -0.532155 -16.461
LeftArm  -11.5984 -33.8538 -57.0778
LeftForeArm  82.2522 -79.8916 -75.8075
LeftHand  -0.0965299 2.86707 3.85974
RightShoulder  0.228161 -2.53272 17.3067
RightArm  5.1677 16.17 44.1496
RightForeArm  84.3663 79.9637 75.7149
RightHand  -0.971615 11.203 -7.18794
LeftUpLeg  -11.656 15.8204 12.0762
LeftLeg  33.893 2.20671 1.91868
LeftFoot  -5.08308 0.437796 -7.34803
LeftToes  -8.26734e-010 9.74065e-011 1.64617e-011
